# AST/ASF file generated using VICON BodyLanguage
# -----------------------------------------------
:version 1.10
:name VICON
:units
  mass 1.0
  length 0.45
  angle deg
:documentation
   .ast/.asf automatically generated from VICON data using
   VICON BodyBuilder and BodyLanguage model FoxedUp or BRILLIANT.MOD
:root
   order TX TY TZ RX RY RZ
   axis XYZ
   position 0 0 0  
   orientation 0 0 0 
:bonedata
  begin
     id 1 
     name lhipjoint
     direction 0.561001 -0.76473 0.316963 
     length 2.4722 
     axis 0 0 0  XYZ
  end
  begin
     id 2 
     name lfemur
     direction 0.34202 -0.939693 0  
     length 7.59403  
     axis 0 0 20  XYZ
    dof rx ry rz
    limits (-160.0 20.0)
           (-70.0 70.0)
           (-60.0 70.0)
  end
  begin
     id 3 
     name ltibia
     direction 0.34202 -0.939693 0   
     length 7.89655   
     axis 0 0 20   XYZ
    dof rx
    limits (-10.0 170.0)
  end
  begin
     id 4 
     name lfoot
     direction 0.061296 -0.168409 0.98381   
     length 2.73287   
     axis -90 7.62852e-016 20   XYZ
    dof rx rz
    limits (-45.0 90.0)
           (-70.0 20.0)
  end
  begin
     id 5 
     name ltoes
     direction 1.53547e-011 -4.21984e-011 1   
     length 1.37057   
     axis -90 7.62852e-016 20   XYZ
    dof rx
    limits (-90.0 20.0)
  end
  begin
     id 6 
     name rhipjoint
     direction -0.559611 -0.765599 0.317323   
     length 2.46939  
     axis 0 0 0  XYZ 
  end
  begin
     id 7 
     name rfemur
     direction -0.34202 -0.939693 0   
     length 7.53712   
     axis 0 0 -20   XYZ
    dof rx ry rz
    limits (-160.0 20.0)
           (-70.0 70.0)
           (-70.0 60.0)
  end
  begin
     id 8 
     name rtibia
     direction -0.34202 -0.939693 0   
     length 8.12549   
     axis 0 0 -20   XYZ
    dof rx
    limits (-10.0 170.0)
 end
 begin
     id 9 
     name rfoot
     direction -0.066984 -0.184037 0.980634   
     length 2.67541  
     axis -90 -7.62852e-016 -20   XYZ
    dof rx rz
    limits (-45.0 90.0)
           (-20.0 70.0)
  end
  begin
     id 10 
     name rtoes
     direction -1.53549e-011 -4.21786e-011 1   
     length 1.34085   
     axis -90 -7.62852e-016 -20   XYZ
    dof rx
    limits (-90.0 20.0)
  end
  begin
     id 11 
     name lowerback
     direction -0.0522728 0.992594 -0.109658   
     length 2.05633   
     axis 0 0 0   XYZ
    dof rx ry rz
    limits (-20.0 45.0)
           (-30.0 30.0)
           (-30.0 30.0)
  end
  begin
     id 12 
     name upperback
     direction 0.00589338 0.999977 0.00335704   
     length 2.05845   
     axis 0 0 0   XYZ
    dof rx ry rz
    limits (-20.0 45.0)
           (-30.0 30.0)
           (-30.0 30.0)
  end
  begin
     id 13 
     name thorax
     direction 0.0292928 0.998059 0.0549487   
     length 2.09281   
     axis 0 0 0   XYZ
    dof rx ry rz
    limits (-20.0 45.0)
           (-30.0 30.0)
           (-30.0 30.0)
  end
  begin
     id 14 
     name lowerneck
     direction 0.0356368 0.980775 0.191858   
     length 1.84767   
     axis 0 0 0   XYZ
    dof rx ry rz
    limits (-20.0 45.0)
           (-30.0 30.0)
           (-30.0 30.0)
  end
  begin
     id 15 
     name upperneck
     direction -0.0227605 0.98931 -0.14404   
     length 1.89582   
     axis 0 0 0   XYZ
    dof rx ry rz
    limits (-20.0 45.0)
           (-30.0 30.0)
           (-30.0 30.0)
  end
  begin
     id 16
     name head
     direction -0.00932985 0.997511 -0.0698904  
     length 1.90213  
     axis 0 0 0   XYZ
    dof rx ry rz
    limits (-20.0 45.0)
           (-30.0 30.0)
           (-30.0 30.0)
  end
  begin
     id 17 
     name lclavicle
     direction 0.873442 0.479511 0.0846686  
     length 3.41193  
     axis 0 0 0   XYZ
    dof ry rz
    limits (-20.0 10.0)
           (0.0 20.0)
  end
  begin
     id 18 
     name lhumerus
     direction 1 -4.4897e-011 -5.62117e-018   
     length 5.59864   
     axis 180 -30 -90   XYZ
    dof rx ry rz
    limits (-60.0 90.0)
           (-90.0 90.0)
           (-90.0 90.0)
  end
  begin
     id 19
     name lradius
     direction 1 -4.48966e-011 -6.26295e-027   
     length 3.59542   
     axis 180 -30 -90   XYZ
    dof rx
    limits (-10.0 170.0)
  end
  begin
     id 20
     name lwrist
     direction 1 -4.48947e-011 -1.74096e-026   
     length 1.79771   
     axis 1.04567e-014 90 90   XYZ
    dof ry
    limits (-180.0 0.0)
 end
  begin
     id 21 
     name lhand
     direction 1 -4.49085e-011 -3.48469e-026   
     length 0.572014   
     axis 2.22196e-014 90 90   XYZ
    dof rx rz
    limits (-90.0 90.0)
           (-45.0 45.0)
  end
  begin
     id 22 
     name lfingers
     direction 1 -4.48884e-011 -6.96135e-026   
     length 0.461173   
     axis 4.44383e-014 90 90   XYZ
    dof rx
    limits (0.0 90.0)
  end
  begin
     id 23
     name lthumb
     direction 0.707107 -6.34976e-011 0.707107   
     length 0.662154   
     axis -90 45 -5.4397e-014   XYZ
    dof rx rz
    limits (-45.0 45.0)
           (-45.0 45.0)
  end
  begin
     id 24 
     name rclavicle
     direction -0.890242 0.443271 0.104786   
     length 3.46753  
     axis 0 0 0   XYZ 
    dof ry rz
    limits (-10.0 20.0)
           (-20.0 0.0)
  end
  begin
     id 25 
     name rhumerus
     direction -1 -4.48963e-011 -5.41723e-018  
     length 5.8094   
     axis 180 30 90   XYZ
    dof rx ry rz
    limits (-90.0 60.0)
           (-90.0 90.0)
           (-90.0 90.0)
  end
  begin
     id 26 
     name rradius
     direction -1 -4.48958e-011 -6.51059e-027   
     length 3.66953   
     axis 180 30 90   XYZ
    dof rx
    limits (-10.0 170.0)
  end
  begin
     id 27 
     name rwrist
     direction -1 -4.48975e-011 -1.74124e-026   
     length 1.83476   
     axis 1.04567e-014 -90 -90   XYZ
    dof ry
    limits (-180.0 0.0)
  end
  begin
     id 28
     name rhand
     direction -1 -4.49013e-011 -3.48326e-026   
     length 0.57843   
     axis 2.22196e-014 -90 -90   XYZ
    dof rx rz
    limits (-90.0 90.0)
           (-45.0 45.0)
  end
  begin
     id 29
     name rfingers
     direction -1 -4.49023e-011 -6.9669e-026   
     length 0.466345   
     axis 4.44383e-014 -90 -90   XYZ
    dof rx
    limits (0.0 90.0)
  end
  begin
     id 30
     name rthumb
     direction -0.707107 -6.34926e-011 0.707107   
     length 0.669581   
     axis -90 -45 5.4397e-014   XYZ
    dof rx rz
    limits (-45.0 45.0)
           (-45.0 45.0)
  end
:hierarchy
  begin
    root lhipjoint rhipjoint lowerback
    lhipjoint lfemur
    lfemur ltibia
    ltibia lfoot
    lfoot ltoes
    rhipjoint rfemur
    rfemur rtibia
    rtibia rfoot
    rfoot rtoes
    lowerback upperback
    upperback thorax
    thorax lowerneck lclavicle rclavicle
    lowerneck upperneck
    upperneck head
    lclavicle lhumerus
    lhumerus lradius
    lradius lwrist
    lwrist lhand lthumb
    lhand lfingers
    rclavicle rhumerus
    rhumerus rradius
    rradius rwrist
    rwrist rhand rthumb
    rhand rfingers
  end

#!OML:ASF H:\SkateBoarding\Project 1\Capture day 1\Session 1\Skater.ASF
:FULLY-SPECIFIED
:DEGREES
112
root -12.326 16.8169 -10.7024 13.3836 34.4973 10.5445
lowerback 8.92205 -2.60095 -6.59715
upperback -2.42185 -4.3754 -1.87321
thorax -7.23654 -1.8845 2.36296
lowerneck -21.4635 -0.106629 0.795304
upperneck 34.8039 0.969452 -3.07051
head 16.0202 0.137212 -1.25301
rclavicle -8.99501e-015 -2.49475e-014
rhumerus -25.2591 33.9581 -73.6143
rradius 57.0654
rwrist -14.0246
rhand -41.7212 6.73737
rfingers 7.12502
rthumb -14.6265 -22.7268
lclavicle -8.99501e-015 -2.49475e-014
lhumerus 10.612 -30.6201 73.405
lradius 92.2702
lwrist 27.6434
lhand -33.8132 2.89189
lfingers 7.12502
lthumb -6.99923 32.7562
rfemur -54.2172 -4.90788 -0.824274
rtibia 79.3773
rfoot -17.1983 26.6462
rtoes -4.3762
lfemur 32.2815 -18.2819 -11.6316
ltibia -2.54444e-014
lfoot -23.7097 30.2277
ltoes 8.59954
113
root -12.3527 16.8944 -10.2708 13.1428 34.7173 10.7224
lowerback 8.91884 -2.45386 -6.90617
upperback -2.25763 -4.2095 -1.97234
thorax -7.06002 -1.80101 2.40209
lowerneck -21.633 -0.131244 0.667027
upperneck 34.8889 0.901808 -2.83882
head 16.0983 0.126463 -1.1454
rclavicle -1.5617e-014 -2.29596e-014
rhumerus -24.4967 33.4395 -73.2833
rradius 56.8146
rwrist -13.8678
rhand -41.5732 6.53146
rfingers 7.12502
rthumb -14.484 -22.943
lclavicle -1.5617e-014 -2.29596e-014
lhumerus 11.195 -31.2325 73.2203
lradius 93.4762
lwrist 27.3629
lhand -33.9611 2.11955
lfingers 7.12502
lthumb -7.142 31.979
rfemur -53.0445 -4.77424 -0.536472
rtibia 78.7809
rfoot -18.1629 26.271
rtoes -5.99823
lfemur 27.0799 -18.4168 -12.2395
ltibia 11.9385
lfoot -22.7039 25.0693
ltoes 8.17858
114
root -12.3817 16.9907 -9.87136 13.0229 34.9213 10.7434
lowerback 9.1522 -2.25869 -6.84361
upperback -2.21159 -3.96739 -2.0844
thorax -7.17814 -1.68358 2.22798
lowerneck -21.7013 -0.275321 0.602308
upperneck 34.8151 0.66067 -2.70922
head 16.0698 0.0378348 -1.12422
rclavicle -5.32494e-014 -3.74709e-014
rhumerus -23.7745 32.7263 -72.9372
rradius 56.5814
rwrist -13.777
rhand -41.7297 6.25631
rfingers 7.12502
rthumb -14.6347 -23.2073
lclavicle -5.32494e-014 -3.74709e-014
lhumerus 11.843 -31.912 73.2164
lradius 94.5267
lwrist 27.0506
lhand -33.9772 1.84083
lfingers 7.12502
lthumb -7.15756 31.6998
rfemur -52.0668 -4.57965 -0.160639
rtibia 78.0683
rfoot -18.7126 26.0173
rtoes -5.22806
lfemur 23.106 -16.8001 -11.6277
ltibia 20.0536
lfoot -19.2724 21.6289
ltoes 5.91957
115
root -12.4014 17.0903 -9.48471 12.8819 35.2865 10.9133
lowerback 9.55386 -2.07721 -6.68584
upperback -2.16365 -3.75219 -2.27125
thorax -7.39819 -1.58151 1.93203
lowerneck -21.6449 -0.453107 0.531508
upperneck 34.7256 0.354683 -2.53332
head 16.003 -0.0703167 -1.09344
rclavicle -1.18935e-013 -6.4605e-016
rhumerus -23.222 31.8407 -72.6889
rradius 56.3079
rwrist -13.7044
rhand -41.7509 6.03257
rfingers 7.12502
rthumb -14.6552 -23.4295
lclavicle -1.18935e-013 -6.4605e-016
lhumerus 12.2572 -32.7116 73.4051
lradius 95.5765
lwrist 26.7548
lhand -33.9264 1.23689
lfingers 7.12502
lthumb -7.10853 31.0975
rfemur -50.82 -4.59069 0.0570957
rtibia 77.2859
rfoot -19.6503 25.6612
rtoes -6.4982
lfemur 20.0747 -15.3346 -11.2837
ltibia 26.5858
lfoot -17.0417 18.3503
ltoes 3.94105
116
root -12.4394 17.1866 -9.06995 12.3371 35.5318 10.4016
lowerback 9.77755 -1.89223 -6.48254
upperback -2.03121 -3.48608 -2.18129
thorax -7.4097 -1.46061 1.88251
lowerneck -21.7834 -0.495296 0.431587
upperneck 34.6664 0.285335 -2.40945
head 16.0045 -0.0939834 -1.03572
rclavicle 8.45891e-014 -4.12478e-014
rhumerus -22.5357 31.0163 -72.481
rradius 56.0427
rwrist -13.5895
rhand -41.8571 5.48165
rfingers 7.12502
rthumb -14.7575 -23.973
lclavicle 8.45891e-014 -4.12478e-014
lhumerus 12.5297 -33.227 73.6311
lradius 96.5293
lwrist 26.453
lhand -33.9493 0.563213
lfingers 7.12502
lthumb -7.13059 30.4231
rfemur -49.6649 -3.9213 0.972773
rtibia 76.47
rfoot -21.0015 25.06
rtoes -5.7089
lfemur 17.1691 -13.5332 -10.2363
ltibia 32.6476
lfoot -14.6161 15.7905
ltoes -0.452824
117
root -12.4682 17.284 -8.67247 11.7307 35.9826 9.84725
lowerback 10.1479 -1.67726 -6.05754
upperback -1.94618 -3.16746 -2.10398
thorax -7.57098 -1.31852 1.69326
lowerneck -21.7519 -0.70976 0.286378
upperneck 34.6458 -0.0440079 -2.22644
head 15.9795 -0.22045 -0.994863
rclavicle -5.93279e-014 1.28962e-014
rhumerus -22.0895 30.006 -72.2207
rradius 55.8245
rwrist -13.7399
rhand -41.318 5.39017
rfingers 7.12502
rthumb -14.2381 -24.1018
lclavicle -5.93279e-014 1.28962e-014
lhumerus 12.6163 -34.0029 74.1702
lradius 97.439
lwrist 26.1352
lhand -34.0472 0.0920893
lfingers 7.12502
lthumb -7.22514 29.9487
rfemur -48.3423 -3.63264 1.91015
rtibia 75.5664
rfoot -22.0183 24.5819
rtoes -5.8592
lfemur 14.4827 -11.8247 -9.20823
ltibia 38.2721
lfoot -13.3483 13.0972
ltoes -3.82973
118
root -12.4997 17.3633 -8.28186 10.9944 36.5075 9.15758
lowerback 10.6481 -1.54595 -5.45367
upperback -1.84377 -2.93999 -1.99579
thorax -7.78492 -1.22757 1.45218
lowerneck -21.8901 -0.84393 0.0370181
upperneck 34.691 -0.224062 -2.00136
head 16.0322 -0.293798 -0.890779
rclavicle 6.74905e-014 -3.18801e-014
rhumerus -21.6554 29.0597 -72.0667
rradius 55.6437
rwrist -13.8725
rhand -41.4539 5.2842
rfingers 7.12502
rthumb -14.369 -24.1985
lclavicle 6.74905e-014 -3.18801e-014
lhumerus 12.549 -34.6309 74.7812
lradius 98.2391
lwrist 25.7229
lhand -34.4587 -0.398812
lfingers 7.12502
lthumb -7.62235 29.4438
rfemur -47.0332 -3.70534 3.0103
rtibia 74.6581
rfoot -22.663 24.1636
rtoes -6.30136
lfemur 11.9648 -10.0668 -8.08089
ltibia 43.5242
lfoot -12.6884 10.5346
ltoes -6.54723
119
root -12.5269 17.4668 -7.87879 10.1888 37.1351 8.34942
lowerback 11.0904 -1.40423 -4.79884
upperback -1.77747 -2.68111 -1.86765
thorax -8.0038 -1.12377 1.1929
lowerneck -21.8257 -1.06829 -0.110195
upperneck 34.7689 -0.568922 -1.80457
head 16.0511 -0.42371 -0.847824
rclavicle 1.94436e-014 -3.21534e-014
rhumerus -21.4345 28.0297 -72.0005
rradius 55.4607
rwrist -14.1194
rhand -41.6815 5.14295
rfingers 7.12502
rthumb -14.5883 -24.324
lclavicle 1.94436e-014 -3.21534e-014
lhumerus 12.3122 -35.3758 75.5361
lradius 98.9457
lwrist 25.4021
lhand -34.4091 -0.654302
lfingers 7.12502
lthumb -7.57446 29.1901
rfemur -45.5012 -3.21699 4.18451
rtibia 73.6329
rfoot -23.9832 23.4077
rtoes -7.64214
lfemur 9.47971 -8.32257 -6.88456
ltibia 48.4758
lfoot -12.3669 8.20876
ltoes -10.2887
120
root -12.5429 17.5919 -7.47988 9.3723 37.9072 7.56286
lowerback 11.575 -1.38069 -4.09921
upperback -1.66736 -2.56108 -1.66451
thorax -8.18745 -1.09 1.00977
lowerneck -21.9447 -1.19932 -0.39098
upperneck 34.9227 -0.711989 -1.6169
head 16.1571 -0.490044 -0.748289
rclavicle 2.33945e-014 -2.3556e-014
rhumerus -21.026 27.2526 -71.7895
rradius 55.2053
rwrist -14.1682
rhand -41.8544 5.19109
rfingers 7.12502
rthumb -14.7549 -24.2637
lclavicle 2.33945e-014 -2.3556e-014
lhumerus 11.9307 -35.8752 76.4826
lradius 99.5243
lwrist 24.8976
lhand -35.2285 -1.69704
lfingers 7.12502
lthumb -8.36526 28.1173
rfemur -43.7418 -3.13232 5.36845
rtibia 72.4852
rfoot -24.4461 23.1704
rtoes -6.18113
lfemur 7.15389 -6.70192 -5.87773
ltibia 53.0629
lfoot -12.7372 5.9192
ltoes -13.3758
121
root -12.5706 17.6701 -7.08841 8.44105 38.6254 6.51987
lowerback 12.0033 -1.30244 -3.29201
upperback -1.62657 -2.34544 -1.47814
thorax -8.42039 -1.01475 0.72773
lowerneck -22.0163 -1.37801 -0.676547
upperneck 35.1647 -0.989976 -1.25609
head 16.2977 -0.585303 -0.59946
rclavicle 1.40906e-013 1.84994e-014
rhumerus -20.9276 26.3743 -71.7612
rradius 55.0748
rwrist -14.2231
rhand -42.1463 5.23015
rfingers 7.12502
rthumb -15.0361 -24.2039
lclavicle 1.40906e-013 1.84994e-014
lhumerus 11.2808 -36.55 77.445
lradius 100.081
lwrist 24.5106
lhand -35.3691 -2.00699
lfingers 7.12502
lthumb -8.501 27.8019
rfemur -42.3633 -2.95368 6.75218
rtibia 71.5315
rfoot -25.8256 22.2265
rtoes -7.07894
lfemur 4.85752 -4.9648 -4.62795
ltibia 57.4148
lfoot -13.5289 3.41851
ltoes -15.1692
122
root -12.5909 17.7525 -6.69748 7.61998 39.552 5.62006
lowerback 12.3594 -1.40126 -2.65758
upperback -1.54218 -2.36927 -1.17066
thorax -8.54302 -1.04726 0.712338
lowerneck -22.2494 -1.47497 -1.09043
upperneck 35.3965 -1.03615 -1.03431
head 16.4774 -0.6251 -0.443315
rclavicle -1.29148e-014 -3.2054e-015
rhumerus -20.5986 26.1373 -71.5595
rradius 54.9442
rwrist -14.3679
rhand -42.528 5.32163
rfingers 7.12502
rthumb -15.4037 -24.0845
lclavicle -1.29148e-014 -3.2054e-015
lhumerus 10.4853 -36.8015 78.6718
lradius 100.522
lwrist 23.9966
lhand -35.3869 -2.50484
lfingers 7.12502
lthumb -8.51812 27.3034
rfemur -40.9247 -3.14101 8.003
rtibia 70.5727
rfoot -26.8052 21.4928
rtoes -7.97307
lfemur 2.54123 -3.43161 -3.64914
ltibia 61.4959
lfoot -14.5605 0.818376
ltoes -16.4997
